<svg id="Layer_1" data-name="Layer 1" xmlns="http://www.w3.org/2000/svg" viewBox="0 0 322.71 241.54"><defs><style>.cls-1{fill:#026a9d;}.cls-2{fill:#7c9fbd;}</style></defs><path class="cls-1" d="M159.15,178.31V141.78h-11c-.6,0-.83,0-.83-.78V126.37a4,4,0,0,1,0-.69H159v-3.4a28.72,28.72,0,0,1,.74-8.42A19.57,19.57,0,0,1,173,99.28a10.35,10.35,0,0,1,3.12-.56h14v16h-12a3.54,3.54,0,0,0-3.89,3.16,2.07,2.07,0,0,0,0,.43v7.09h15.91v16.14H174.24v36.07a1.19,1.19,0,0,0,0,.46Z"/><path class="cls-2" d="M168.72,223.86a85.3,85.3,0,0,1-.05-170.59h0a85.3,85.3,0,0,1,0,170.59Zm0-152.19h0a66.89,66.89,0,0,0,0,133.78h0a66.89,66.89,0,1,0,0-133.78Z"/></svg>