<svg id="Layer_1" data-name="Layer 1" xmlns="http://www.w3.org/2000/svg" viewBox="0 0 432.15 263.78"><defs><style>.cls-1{fill:#0a314f;}</style></defs><path class="cls-1" d="M310.68,127.33h-199a8.57,8.57,0,0,0-8.6,7.67,8.44,8.44,0,0,0,7.64,9.17c.26,0,.51,0,.77,0h199a8.58,8.58,0,0,0,8.6-7.68,8.44,8.44,0,0,0-7.64-9.17C311.19,127.34,310.94,127.33,310.68,127.33Z"/><path class="cls-1" d="M310.68,59.8h-199a8.57,8.57,0,0,0-8.6,7.68,8.45,8.45,0,0,0,7.64,9.17c.26,0,.51,0,.77,0h199a8.57,8.57,0,0,0,8.6-7.67,8.44,8.44,0,0,0-7.64-9.17A6.62,6.62,0,0,0,310.68,59.8Z"/><path class="cls-1" d="M310.68,194.85h-199a8.57,8.57,0,0,0-8.6,7.67,8.44,8.44,0,0,0,7.64,9.17,6.62,6.62,0,0,0,.77,0h199a8.57,8.57,0,0,0,8.6-7.67,8.45,8.45,0,0,0-7.64-9.18C311.19,194.86,310.94,194.85,310.68,194.85Z"/></svg>