<svg id="Layer_1" data-name="Layer 1" xmlns="http://www.w3.org/2000/svg" viewBox="0 0 289.03 213.35"><defs><style>.cls-1{fill:#7c9fbd;}.cls-2{fill:#026a9d;}</style></defs><path class="cls-1" d="M147.69,183.34a69,69,0,1,1,0-137.94h0a69,69,0,0,1,0,137.94Zm0-123.06h0a54.09,54.09,0,0,0,0,108.18h0a54.09,54.09,0,0,0,0-108.18Z"/><path class="cls-2" d="M181.8,96.78v35.15a7.39,7.39,0,0,1-.33,1.27A18.31,18.31,0,0,1,172.13,146a44,44,0,0,1-6.88,2.46H130.13a11.33,11.33,0,0,0-1.27-.34,18.14,18.14,0,0,1-12.94-9.3,52.12,52.12,0,0,1-2.46-6.84V96.81l.34-1.26a18.19,18.19,0,0,1,9.56-13,50.7,50.7,0,0,1,6.88-2.45h35.15l1,.29a18.11,18.11,0,0,1,12.76,9.34A44.73,44.73,0,0,1,181.8,96.78Zm-34.15,45.68h14.69a12.88,12.88,0,0,0,13.44-12.29c0-.39,0-.78,0-1.18V99.71A12.79,12.79,0,0,0,163.6,86.32q-.65,0-1.29,0H133a12.8,12.8,0,0,0-13.4,12.17,11.28,11.28,0,0,0,0,1.3V129a12.83,12.83,0,0,0,12.21,13.43c.41,0,.83,0,1.25,0Z"/><path class="cls-2" d="M147.72,132a17.6,17.6,0,1,1,17.56-17.64v.08A17.63,17.63,0,0,1,147.72,132Zm0-6.07a11.53,11.53,0,1,0-11.53-11.53,11.54,11.54,0,0,0,11.53,11.53Z"/><path class="cls-2" d="M166.1,100.5A4.41,4.41,0,1,1,170.45,96v.08A4.43,4.43,0,0,1,166.1,100.5Z"/></svg>