<svg id="Layer_1" data-name="Layer 1" xmlns="http://www.w3.org/2000/svg" xmlns:xlink="http://www.w3.org/1999/xlink" viewBox="0 0 686 214.28"><defs><style>.cls-1,.cls-2,.cls-6{fill:none;}.cls-2,.cls-6{stroke:#000;}.cls-2{stroke-miterlimit:22.93;stroke-width:0.3px;}.cls-3{clip-path:url(#clip-path);}.cls-4{fill:#fff;}.cls-4,.cls-5{fill-rule:evenodd;}.cls-5{fill:#2f358f;}.cls-6{stroke-miterlimit:22.93;stroke-width:0.3px;}</style><clipPath id="clip-path"><rect class="cls-1" width="686" height="214.28"/></clipPath></defs><line class="cls-2" x1="660" y1="2.15" x2="684" y2="2.15"/><g class="cls-3"><g class="cls-3"><path class="cls-4" d="M584.06,169.88H79.49a17.06,17.06,0,0,1-17-17V61.4a17.06,17.06,0,0,1,17-17H584.06a17,17,0,0,1,17,17v91.48a17,17,0,0,1-17,17"/><path class="cls-5" d="M518.69,59.09A6.9,6.9,0,0,0,515.62,61a4.25,4.25,0,0,0-1.06,2.84,4.3,4.3,0,0,0,1.06,2.86,7,7,0,0,0,3.08,2,16.16,16.16,0,0,0,9.41,0,7,7,0,0,0,3.09-2,4.31,4.31,0,0,0,1.07-2.86A4.26,4.26,0,0,0,531.2,61a7.05,7.05,0,0,0-3.08-1.95,16.23,16.23,0,0,0-9.43,0m-58.92-.41v4.59h8.72a8.11,8.11,0,0,0,2.43-.31,3.45,3.45,0,0,0,1.5-.85,1.65,1.65,0,0,0-.42-2.77,6,6,0,0,0-3.23-.66Zm-39.58,5.2a4.3,4.3,0,0,0,1.06,2.86,7,7,0,0,0,3.07,2,16.2,16.2,0,0,0,9.42,0,6.92,6.92,0,0,0,3.08-2,4.26,4.26,0,0,0,1.07-2.86A4.21,4.21,0,0,0,436.82,61a7,7,0,0,0-3.07-1.95,16.26,16.26,0,0,0-9.44,0A7,7,0,0,0,421.24,61a4.29,4.29,0,0,0-1.05,2.84m-86.28-5.2v4.59h8.72a8.11,8.11,0,0,0,2.43-.31,3.45,3.45,0,0,0,1.5-.85,1.65,1.65,0,0,0-.42-2.77,6,6,0,0,0-3.23-.66ZM220.83,113.33l-4.38,17.48h8.88Zm85.38,0-4.39,17.48h8.88Zm30.85-5.25v39.57H340a9.76,9.76,0,0,0,8.95-4.91q2.94-4.89,2.95-14.89T348.94,113a9.77,9.77,0,0,0-8.95-4.88Zm37.32,5c-1.75,3.66-2.62,8.55-2.62,14.71s.87,11.26,2.62,15,4,5.65,6.85,5.65,5.15-1.84,6.9-5.51,2.62-8.56,2.62-14.67q0-9.48-2.57-15.07t-6.85-5.6q-4.33,0-6.95,5.47M413,108.19l0,18.45c.21,0,.44,0,.69.06h1.1q4.08,0,6-2.31c1.29-1.55,1.94-3.93,1.94-7.17,0-2.94-.64-5.19-1.91-6.73a6.8,6.8,0,0,0-5.54-2.31Zm101.71,5.14-4.38,17.48h8.88ZM139,169.87l-.2-64.93v-.25l-3.43,3-10.71,9.51,2.59,2.92h0l8.7,9.68-1.13.27c-5.58,1.3-11.1,1.46-16.48-.9A23.14,23.14,0,0,1,114,126.7l-.47-.52L102.62,114l-40.14,32.2v8.22a15.26,15.26,0,0,0,4.67,10.94,9.72,9.72,0,0,1,.87-1.28,27.88,27.88,0,0,1,2.18-2.46c.12-.13.25-.25.38-.38h0l0,0,.33-.31c1-.93,2.07-1.93,3.38-3-4.2-5.43.5-12.88,8.78-8.59-3.15-5.91,2.62-12.23,9.35-8.12-3.2-5.9,2.73-12.5,9.77-7.89-2.6-5.17,1.27-11,6.61-9.32a9.84,9.84,0,0,1,3.79,2.34l2.62,3.09,7.59,8.91a14.9,14.9,0,0,1,.12,1.93,9.5,9.5,0,0,1-.24,2.24,5,5,0,0,1-4.18,4.07,8.51,8.51,0,0,1-4-.39,10.78,10.78,0,0,1-1.74-.76c.1.23.19.45.27.67a9.3,9.3,0,0,1,.31,1,6.21,6.21,0,0,1-4.9,7.63,7,7,0,0,1-4.16-.27,6.5,6.5,0,0,1-1.05-.54l0,.09a8.39,8.39,0,0,1,.32,1c1.73,6.55-4.86,8.86-9.53,7.74l0,0c1.38,3.81-.75,5.46-2.38,7.11H139m372-106a5.13,5.13,0,0,1,.64-2.42,6.86,6.86,0,0,1,2.09-2.3,11.72,11.72,0,0,1,3.87-1.73,25.68,25.68,0,0,1,11.57,0,11.75,11.75,0,0,1,3.86,1.72,7,7,0,0,1,2.08,2.3,4.93,4.93,0,0,1,0,4.86,7,7,0,0,1-2.08,2.32,11.85,11.85,0,0,1-3.86,1.73,25.68,25.68,0,0,1-11.57,0,11.61,11.61,0,0,1-3.87-1.74,7,7,0,0,1-2.09-2.31,5.19,5.19,0,0,1-.64-2.43m-18.49-6.79H496V70.65h-3.47ZM456.38,70.65V57.09h12.11a17.23,17.23,0,0,1,4,.44,7.66,7.66,0,0,1,2.92,1.27,2.51,2.51,0,0,1,1.1,2Q476.5,63,473,64a4.28,4.28,0,0,1,2.1.82,2.47,2.47,0,0,1,.84,1.34,8.54,8.54,0,0,1,.18,1.93,4.41,4.41,0,0,0,.27,1.6,1.32,1.32,0,0,0,1.11.68v.31h-4.25a4.68,4.68,0,0,1-.46-2.11,13.72,13.72,0,0,0-.17-2,1.86,1.86,0,0,0-1-1.13,6.7,6.7,0,0,0-3.15-.53h-8.65v5.79Zm-39.74-6.77a5.25,5.25,0,0,1,.64-2.42,7,7,0,0,1,2.09-2.3,11.81,11.81,0,0,1,3.87-1.73,25.68,25.68,0,0,1,11.57,0,11.66,11.66,0,0,1,3.86,1.72,6.92,6.92,0,0,1,2.08,2.3,5.09,5.09,0,0,1,.65,2.43,5.19,5.19,0,0,1-.64,2.43,7,7,0,0,1-2.09,2.32,11.75,11.75,0,0,1-3.86,1.73,25.68,25.68,0,0,1-11.57,0,11.7,11.7,0,0,1-3.87-1.74,7,7,0,0,1-2.09-2.31,5.32,5.32,0,0,1-.64-2.43m-32.37-5.13V57.09H405v1.66h-8.64v11.9h-3.46V58.75Zm-17.59-1.66h3.46V70.65h-3.46ZM330.52,70.65V57.09h12.11a17.23,17.23,0,0,1,4,.44,7.66,7.66,0,0,1,2.92,1.27,2.51,2.51,0,0,1,1.1,2q0,2.22-3.51,3.15a4.28,4.28,0,0,1,2.1.82,2.47,2.47,0,0,1,.84,1.34,8.54,8.54,0,0,1,.18,1.93,4.41,4.41,0,0,0,.27,1.6,1.32,1.32,0,0,0,1.11.68v.31h-4.25a4.68,4.68,0,0,1-.46-2.11,13.72,13.72,0,0,0-.17-2,1.86,1.86,0,0,0-1-1.13,6.7,6.7,0,0,0-3.15-.53h-8.65v5.79ZM292.85,64l0-.2,0-.21A5.1,5.1,0,0,1,294,60.38a8.76,8.76,0,0,1,3.81-2.54,20.36,20.36,0,0,1,6.65-1.11,26,26,0,0,1,4.43.39,12.38,12.38,0,0,1,4,1.37,4.53,4.53,0,0,1,2.27,2.69h-3.32a3.93,3.93,0,0,0-2.46-2.1,12.92,12.92,0,0,0-4.45-.69l-1,0c-.45,0-.77,0-1,0a10.69,10.69,0,0,0-3.48.91,5.59,5.59,0,0,0-2.28,1.81,4.32,4.32,0,0,0-.79,2.57,5,5,0,0,0,.62,2.54,5,5,0,0,0,1.69,1.77,8,8,0,0,0,2.44,1,13.4,13.4,0,0,0,2.9.34l.14,0h.07a12.42,12.42,0,0,0,5.33-1,4.31,4.31,0,0,0,2.42-2.73h3.4a4.82,4.82,0,0,1-1.73,2.71A10.28,10.28,0,0,1,310,70.29a19.31,19.31,0,0,1-5.34.73,21.38,21.38,0,0,1-5.19-.54,10.87,10.87,0,0,1-3.58-1.5,6.63,6.63,0,0,1-2.12-2.21,6.81,6.81,0,0,1-.87-2.8m-32.13-1.28a2.07,2.07,0,0,1-1-1.77,2.88,2.88,0,0,1,.94-2.05,6.86,6.86,0,0,1,2.92-1.52,17.65,17.65,0,0,1,4.92-.58,20.85,20.85,0,0,1,6.22.71,5.89,5.89,0,0,1,2.88,1.63,3.91,3.91,0,0,1,.82,2h-3.19a2.12,2.12,0,0,0-1-1.6,6.51,6.51,0,0,0-2.35-.88,15.91,15.91,0,0,0-3-.27,14.66,14.66,0,0,0-4,.51c-1.18.34-1.78,1-1.78,1.88s1,1.45,3.05,1.68q5,.63,7.25.88c3.82.52,5.74,1.75,5.74,3.66a2.74,2.74,0,0,1-1.5,2.41,10.15,10.15,0,0,1-3.75,1.3,27.48,27.48,0,0,1-4.71.38,19.34,19.34,0,0,1-7.54-1.17q-2.69-1.17-2.68-3.58h3.18a2.18,2.18,0,0,0,1,1.87,6.86,6.86,0,0,0,2.63,1,17.48,17.48,0,0,0,3.38.31,23.24,23.24,0,0,0,3-.19,8.14,8.14,0,0,0,2.57-.7,1.56,1.56,0,0,0,1.06-1.39A1.47,1.47,0,0,0,275.3,66a3.76,3.76,0,0,0-1.61-.69,31.34,31.34,0,0,0-3.29-.56l-3.79-.44a28.71,28.71,0,0,1-3.35-.59,7.53,7.53,0,0,1-2.54-1.06m-34.63,8V57.09h18.53v1.66H229.49v4.13h14V64.5h-14V69h15.34v1.62Zm-108.62-.08,21.23-17.9c2.51-.06,4.06,1.71,3.55,4.41L121,75a3.74,3.74,0,0,1-3.54-4.41m-55,20.85L96,91.32q7.93,1,12.17,5.55l5.85,7.74,16.27-13.56c-3.69-5-7-10-9-14.6l.1-.08,3.34-2.76,19.52-16.1a113.55,113.55,0,0,1,21.79,22L601,79.68l0-19.8a15.73,15.73,0,0,0-15.89-15.49H78.37A15.74,15.74,0,0,0,62.48,59.88ZM554,151.63v-3.46l3-.38.81-1.11V108.94l-.81-1-3.22-.34v-3.46H579v9.22h-3.47a4.58,4.58,0,0,0-3.16-5.1h-8v17.62h6.76l.71-.93,1.28-4.24h2.19v14.43l-2.19-.19-1.28-3.85-.71-.93h-6.76v16.51l.86,1.11,3.54.38v3.46Zm-18.88,0v-3.46l3.34-.38.84-1.11V108.94l-.84-1-3.34-.34v-3.46h15.08v3.46l-3.37.34-.81,1v37.74l.81,1.11,3.37.38v3.46Zm-32.88-4.12,11.39-43.89h5.29l11.58,43.82,3,.73v3.46h-13.6v-3.46l3.17-.45.37-.89-3-12h-11l-3,12,.52.89,3.17.52v3.46H499.18v-3.46Zm-27.53-33.37v-10h29l-.1,10.53H502c-.85-6.26-2-6.2-3.32-6.48h-6v38.49l.86,1.11,3.27.38v3.46H481.65v-3.46l3.29-.38.84-1.11V108.19h-6c-2.73-.44-3.47,3-3.45,5.85Zm-23.75,37.49v-3.46l3.07-.38.86-1.11V108.94l-.71-1-3.22-.34v-3.46h14.51v3.46l-3.07.34-.82,1v38.57h7.14c3.41-.19,5.05-1.53,5.52-4.78h2.36l-.19,8.9Zm-44.47-4.95V108.94l-.81-1-3-.34v-3.46H418c3.87,0,6.8,1,8.81,3.08s3,5,3,9a13.32,13.32,0,0,1-2.19,7.94,11,11,0,0,1-6.46,4.17c.83,2.31,6.86,16.85,9.06,18.75.84.72.39.89,2.16.89H433v3.39c-1.62.32-6.94.94-7.73.09-2.19-2.38-6-15.52-8.59-20.24a8,8,0,0,0-2.84-.46H413v15.92l.82,1.11,3.07.38v3.46H402.67v-3.46l3-.38ZM365.56,117.2a23.43,23.43,0,0,1,3.88-8,16.6,16.6,0,0,1,5.33-4.61,13.66,13.66,0,0,1,6.46-1.54,13.18,13.18,0,0,1,6,1.39,16,16,0,0,1,5.08,4.15,24.66,24.66,0,0,1,4.44,8.49,39.74,39.74,0,0,1,.17,21.3,24.42,24.42,0,0,1-4,8.16,16.56,16.56,0,0,1-5.22,4.62,12.49,12.49,0,0,1-6.12,1.6q-7.8,0-12.55-6.91c-3.18-4.62-4.76-10.68-4.76-18.22a38.54,38.54,0,0,1,1.3-10.44m-35.14,29.48v-37.6l-.81-1.14-3.07-.34v-3.46h14.7q8.63,0,13.39,6.22t4.76,17.55A36.11,36.11,0,0,1,357.83,139a21.42,21.42,0,0,1-4.64,8.18,12.78,12.78,0,0,1-5,3.38,19.59,19.59,0,0,1-7,1.08h-14.7v-3.46l3.07-.38Zm-36.71.83,11.39-43.89h8.62l-.11,2.75-2.24.4L322,147.44l3,.73v3.46h-13.6v-3.46l3.18-.45.37-.89-3-12h-11l-3,12,.52.89,3.17.52v3.46H290.69v-3.46ZM261.07,107.6v-3.46h13.84v3.46l-2.92.34-.54,1.07,8.55,27.7,7.92-27.7-.56-1.07-3-.34v-3.46h11v3.46l-3.28.93L278.17,152.2,264.4,108.46Zm-20,44v-3.46l3.07-.38.87-1.11V108.94l-.71-1-3.23-.34v-3.46h14.51v3.46l-3.07.34-.81,1v38.57h5.57c6.65-.19,6.75-2.1,7.48-5.16l1.77-.19v9.47Zm-32.73-4.12,11.39-43.89h7.55l.5,1.88-2,.93,10.84,41,3,.73v3.46H226v-3.46l3.17-.45.37-.89-3-12h-11l-3,12,.52.89,3.18.52v3.46H205.31v-3.46Zm-29.13,2.56v-10h1.6l2.08,5.18,1.61,2.1a12,12,0,0,0,2.2.72,10.34,10.34,0,0,0,2.22.24,6.31,6.31,0,0,0,4.73-1.82,6.74,6.74,0,0,0,1.77-4.88,9.19,9.19,0,0,0-1.24-4.79,14.35,14.35,0,0,0-4.15-4.13c-.31-.22-.79-.55-1.43-1a24,24,0,0,1-5.16-4.29,17.57,17.57,0,0,1-2.61-5.1,16.2,16.2,0,0,1,2.4-15.17,10.63,10.63,0,0,1,8.57-3.94,18.84,18.84,0,0,1,4.65.6,25.3,25.3,0,0,1,4.82,1.81V113l-1.33-.1-2.7-3L195.68,108a5,5,0,0,0-1.63-.75A8.07,8.07,0,0,0,192,107a5.44,5.44,0,0,0-4.31,1.87,7.09,7.09,0,0,0-1.62,4.87,8.66,8.66,0,0,0,.92,4,12.57,12.57,0,0,0,3.17,3.64,30.87,30.87,0,0,0,3,2,29.71,29.71,0,0,1,4.17,3.06,17.19,17.19,0,0,1,3.76,5.5,16.3,16.3,0,0,1-2.48,16.42,12.48,12.48,0,0,1-9.69,4,21,21,0,0,1-4.94-.6,23.71,23.71,0,0,1-4.77-1.75m.28-48.86-21.23,17.9a3.75,3.75,0,0,1-3.55-4.41l21.23-17.9c2.51-.06,4.06,1.71,3.55,4.41m-33.91,7.08.19,61.58H585.17a15.73,15.73,0,0,0,15.89-15.48V87.24l-429.79-.06c.69,1.13,1.36,2.27,2,3.43q1.29,2.33,2.49,4.74l-17.53,14.87-4.65,3.94-.05,0c-1.39-.93-2.61-1.73-3.68-2.46a29.58,29.58,0,0,1-4.29-3.38"/><line class="cls-6" x1="660" y1="2.15" x2="684" y2="2.15"/></g></g></svg>