<svg id="Layer_1" data-name="Layer 1" xmlns="http://www.w3.org/2000/svg" viewBox="0 0 686 214.28"><defs><style>.cls-1{fill:#fff;}.cls-2{fill:#2e3192;fill-rule:evenodd;}.cls-3,.cls-4{fill:none;stroke-miterlimit:22.93;}.cls-3{stroke:#000;stroke-width:0.3px;}.cls-4{stroke:#fff;stroke-width:0.57px;}</style></defs><rect class="cls-1" x="72.69" y="60.5" width="538.58" height="125.49" rx="12"/><path class="cls-2" d="M528.89,75.2a7,7,0,0,0-3.07,2,4.38,4.38,0,0,0,0,5.7,7.06,7.06,0,0,0,3.07,2,16.2,16.2,0,0,0,9.42,0,7.1,7.1,0,0,0,3.08-2A4.26,4.26,0,0,0,542.47,80a4.19,4.19,0,0,0-1.07-2.84,7,7,0,0,0-3.07-2,16.26,16.26,0,0,0-9.44,0M470,74.78v4.6h8.72a8.09,8.09,0,0,0,2.43-.32,3.46,3.46,0,0,0,1.49-.84,1.89,1.89,0,0,0,.57-1.12,2,2,0,0,0-1-1.65,6,6,0,0,0-3.22-.67ZM430.39,80a4.32,4.32,0,0,0,1.06,2.86,7.1,7.1,0,0,0,3.08,2,16.16,16.16,0,0,0,9.41,0,7.14,7.14,0,0,0,3.09-2A4.31,4.31,0,0,0,448.1,80,4.24,4.24,0,0,0,447,77.15a7.05,7.05,0,0,0-3.08-2,16.23,16.23,0,0,0-9.43,0,7,7,0,0,0-3.07,2A4.25,4.25,0,0,0,430.39,80Zm-86.27-5.21v4.6h8.72a8.09,8.09,0,0,0,2.43-.32,3.46,3.46,0,0,0,1.49-.84,1.89,1.89,0,0,0,.57-1.12,2,2,0,0,0-1-1.65,6,6,0,0,0-3.22-.67ZM231,129.44l-4.38,17.48h8.88Zm85.37,0L312,146.92h8.88Zm30.86-5.25v39.57h2.93a9.75,9.75,0,0,0,8.94-4.91q3-4.9,2.95-14.89c0-6.67-1-11.62-2.95-14.89a9.75,9.75,0,0,0-8.94-4.88Zm37.32,5Q382,134.66,382,143.89c0,6.24.87,11.26,2.62,15s4,5.65,6.85,5.65,5.15-1.84,6.89-5.51,2.62-8.57,2.62-14.68q0-9.47-2.56-15.06t-6.85-5.61Q387.2,123.7,384.59,129.18Zm38.61-4.89,0,18.46.7.05c.26,0,.62,0,1.1,0,2.72,0,4.72-.77,6-2.32s1.93-3.93,1.93-7.16c0-3-.63-5.19-1.91-6.74a6.8,6.8,0,0,0-5.54-2.31Zm101.71,5.15-4.39,17.48h8.88ZM149.17,186,149,121v-.24l-3.43,3-10.71,9.51,2.58,2.92h0l8.7,9.67-1.13.28c-5.58,1.3-11.09,1.46-16.47-.9a24.36,24.36,0,0,1-4.36-2.52l-.47-.53-10.87-12.19L72.69,162.28v8.23a15.21,15.21,0,0,0,4.66,10.93,10.89,10.89,0,0,1,.87-1.27,29.53,29.53,0,0,1,2.18-2.47l.38-.37h0l0,0c.1-.11.21-.21.32-.32.95-.92,2.08-1.93,3.38-3-4.19-5.44.5-12.88,8.79-8.59-3.15-5.91,2.61-12.24,9.35-8.13-3.21-5.89,2.73-12.49,9.76-7.88-2.59-5.18,1.28-11,6.62-9.32a9.88,9.88,0,0,1,3.78,2.34l2.63,3.09L133,154.4a14.89,14.89,0,0,1,.13,1.93,9.89,9.89,0,0,1-.24,2.23,5,5,0,0,1-4.18,4.07,8.37,8.37,0,0,1-4-.38,10.41,10.41,0,0,1-1.74-.76c.1.22.19.45.27.67a7.38,7.38,0,0,1,.3,1,6.22,6.22,0,0,1-4.89,7.64,7,7,0,0,1-4.17-.28,5.41,5.41,0,0,1-1-.54l0,.09c.13.35.23.69.32,1,1.72,6.56-4.87,8.87-9.53,7.74l0,0c1.39,3.81-.75,5.46-2.38,7.11ZM521.22,80a5.32,5.32,0,0,1,.64-2.43A7,7,0,0,1,524,75.27a11.61,11.61,0,0,1,3.87-1.73,22.29,22.29,0,0,1,5.79-.66,22.57,22.57,0,0,1,5.78.65,11.66,11.66,0,0,1,3.86,1.73,6.83,6.83,0,0,1,2.08,2.3A5.21,5.21,0,0,1,546,80a5.32,5.32,0,0,1-.64,2.43,7.09,7.09,0,0,1-2.09,2.31,11.55,11.55,0,0,1-3.86,1.74,25.68,25.68,0,0,1-11.57,0A11.61,11.61,0,0,1,524,84.73a7.06,7.06,0,0,1-2.09-2.31A5.32,5.32,0,0,1,521.22,80Zm-18.48,6.76V73.2h3.47V86.75Zm-36.16,0V73.2h12.11a17.28,17.28,0,0,1,4,.43,7.74,7.74,0,0,1,2.92,1.28,2.53,2.53,0,0,1,1.09,2q0,2.22-3.51,3.15a4.23,4.23,0,0,1,2.11.82,2.49,2.49,0,0,1,.84,1.34,8.56,8.56,0,0,1,.17,1.93,4.36,4.36,0,0,0,.28,1.59,1.31,1.31,0,0,0,1.1.69v.3h-4.25a4.49,4.49,0,0,1-.45-2.1,17.09,17.09,0,0,0-.17-2,1.92,1.92,0,0,0-1.05-1.14,6.75,6.75,0,0,0-3.14-.53H470v5.79ZM426.85,80a5.19,5.19,0,0,1,.64-2.43,6.93,6.93,0,0,1,2.09-2.29,11.52,11.52,0,0,1,3.87-1.73,22.29,22.29,0,0,1,5.79-.66,22.63,22.63,0,0,1,5.78.65,11.75,11.75,0,0,1,3.86,1.73,6.94,6.94,0,0,1,2.08,2.3,4.93,4.93,0,0,1,0,4.86,7,7,0,0,1-2.08,2.31A11.64,11.64,0,0,1,445,86.47a25.68,25.68,0,0,1-11.57,0,11.61,11.61,0,0,1-3.87-1.74,7.06,7.06,0,0,1-2.09-2.31A5.19,5.19,0,0,1,426.85,80Zm-32.37-5.13V73.2h20.68v1.66h-8.64V86.75h-3.47V74.86Zm-17.6,11.89V73.2h3.46V86.75Zm-36.16,0V73.2h12.11a17.28,17.28,0,0,1,4,.43,7.74,7.74,0,0,1,2.92,1.28,2.53,2.53,0,0,1,1.09,2q0,2.22-3.51,3.15a4.23,4.23,0,0,1,2.11.82,2.49,2.49,0,0,1,.84,1.34,8.56,8.56,0,0,1,.17,1.93,4.36,4.36,0,0,0,.28,1.59,1.31,1.31,0,0,0,1.1.69v.3h-4.25a4.49,4.49,0,0,1-.45-2.1,17.09,17.09,0,0,0-.17-2,1.92,1.92,0,0,0-1-1.14,6.75,6.75,0,0,0-3.14-.53h-8.65v5.79Zm-37.66-6.67,0-.21,0-.2a5.14,5.14,0,0,1,1.19-3.19A8.55,8.55,0,0,1,308,74a20.05,20.05,0,0,1,6.65-1.11,26.84,26.84,0,0,1,4.42.38,12.68,12.68,0,0,1,4,1.38,4.51,4.51,0,0,1,2.27,2.69h-3.33a3.88,3.88,0,0,0-2.45-2.1,13,13,0,0,0-4.46-.69c-.21,0-.54,0-1,0l-1,0a10.81,10.81,0,0,0-3.48.9,5.54,5.54,0,0,0-2.28,1.82,4.32,4.32,0,0,0-.8,2.56A4.9,4.9,0,0,0,309,84.19a8.07,8.07,0,0,0,2.44,1,13.49,13.49,0,0,0,2.91.34l.13,0h.07a12.28,12.28,0,0,0,5.34-1,4.35,4.35,0,0,0,2.42-2.72h3.4a4.89,4.89,0,0,1-1.74,2.71,10.39,10.39,0,0,1-3.78,1.91,19.71,19.71,0,0,1-5.35.73,21.86,21.86,0,0,1-5.18-.54,10.93,10.93,0,0,1-3.59-1.5,6.86,6.86,0,0,1-2.12-2.22A6.75,6.75,0,0,1,303.06,80.08ZM270.93,78.8A2.07,2.07,0,0,1,270,77a2.87,2.87,0,0,1,.93-2,6.7,6.7,0,0,1,2.92-1.52,17.67,17.67,0,0,1,4.93-.58,21.17,21.17,0,0,1,6.21.7,5.93,5.93,0,0,1,2.89,1.64,3.85,3.85,0,0,1,.81,2h-3.18a2.11,2.11,0,0,0-1-1.6,6.46,6.46,0,0,0-2.34-.89,16.82,16.82,0,0,0-3-.27,14.15,14.15,0,0,0-4,.52c-1.19.34-1.78,1-1.78,1.88s1,1.45,3,1.68c3.35.41,5.77.71,7.26.88q5.73.78,5.73,3.66a2.75,2.75,0,0,1-1.49,2.41,10.59,10.59,0,0,1-3.75,1.3,28.71,28.71,0,0,1-4.71.38A19.4,19.4,0,0,1,271.81,86q-2.69-1.18-2.68-3.58h3.18a2.14,2.14,0,0,0,1,1.86,6.59,6.59,0,0,0,2.62,1,17.59,17.59,0,0,0,3.39.31,25.17,25.17,0,0,0,3-.19,8.5,8.5,0,0,0,2.57-.7A1.56,1.56,0,0,0,286,83.29a1.44,1.44,0,0,0-.48-1.15,3.88,3.88,0,0,0-1.6-.7,32.35,32.35,0,0,0-3.29-.55l-3.79-.45a28.4,28.4,0,0,1-3.35-.58A7.36,7.36,0,0,1,270.93,78.8Zm-34.63,8V73.2h18.52v1.66H239.7V79h14v1.63h-14v4.52H255v1.62Zm-108.63-.07,21.24-17.91c2.5-.06,4.05,1.72,3.54,4.41L131.22,91.09A3.76,3.76,0,0,1,127.67,86.68Zm-55,20.84,33.56-.1q7.94,1,12.17,5.55l5.85,7.75,16.27-13.56c-3.69-5-7-10-9-14.6l.09-.08L135,89.72l19.52-16.1a113.21,113.21,0,0,1,21.78,22l434.93.15,0-19.81A15.73,15.73,0,0,0,595.38,60.5H88.58A15.74,15.74,0,0,0,72.69,76Zm491.47,60.21v-3.45l3-.38.82-1.11V125.05l-.82-1L564,123.7v-3.45h25.27v9.21h-3.46a4.6,4.6,0,0,0-3.17-5.1h-8V142h6.76l.71-.93,1.28-4.24h2.19v14.43l-2.19-.19-1.28-3.85-.71-.94h-6.76v16.52l.85,1.11,3.55.38v3.45Zm-18.87,0v-3.45l3.34-.38.84-1.11V125.05l-.84-1-3.34-.34v-3.45h15.07v3.45L557,124l-.82,1v37.74l.82,1.11,3.36.38v3.45Zm-32.88-4.11,11.39-43.89h5.29l11.58,43.82,3,.73v3.45H530v-3.45l3.18-.45.37-.9-3-12h-11l-3,12,.52.9,3.17.52v3.45H509.39v-3.45Zm-27.53-33.37v-10h29l-.11,10.52h-1.64c-.85-6.25-2-6.19-3.31-6.48H502.8v38.5l.87,1.11,3.26.38v3.45H491.86v-3.45l3.29-.38.84-1.11v-38.5h-6c-2.72-.43-3.46,3-3.44,5.86Zm-23.76,37.48v-3.45l3.07-.38.87-1.11V125.05l-.72-1-3.22-.34v-3.45h14.51v3.45l-3.07.34-.81,1v38.57h7.14c3.4-.2,5.05-1.53,5.51-4.78h2.37l-.2,8.89Zm-44.46-4.94V125.05l-.82-1-3-.34v-3.45h15.32q5.81,0,8.82,3.07c2,2.06,3,5.05,3,9a13.32,13.32,0,0,1-2.19,7.94,11,11,0,0,1-6.47,4.16c.84,2.31,6.87,16.86,9.07,18.75.84.72.38.9,2.15.9h.64v3.38c-1.61.33-6.94.94-7.72.09-2.2-2.37-6-15.51-8.6-20.23a7.93,7.93,0,0,0-2.84-.47h-.86v15.93l.81,1.11,3.07.38v3.45H412.87v-3.45l3-.38Zm-40.9-29.48a23.63,23.63,0,0,1,3.89-8,16.6,16.6,0,0,1,5.33-4.61,13.63,13.63,0,0,1,6.46-1.54,13.26,13.26,0,0,1,6,1.38,15.84,15.84,0,0,1,5.08,4.16A24.31,24.31,0,0,1,407,133.2a39.74,39.74,0,0,1,.17,21.3,24.33,24.33,0,0,1-4,8.16,16.48,16.48,0,0,1-5.21,4.61,12.45,12.45,0,0,1-6.12,1.61q-7.81,0-12.56-6.91c-3.17-4.62-4.76-10.68-4.76-18.22A38.94,38.94,0,0,1,375.76,133.31Zm-35.13,29.48v-37.6l-.82-1.15-3.07-.34v-3.45h14.71q8.63,0,13.39,6.21T369.59,144A36.16,36.16,0,0,1,368,155.1a21.36,21.36,0,0,1-4.63,8.17,12.87,12.87,0,0,1-5,3.39,19.65,19.65,0,0,1-7,1.07H336.74v-3.45l3.07-.38Zm-36.72.83,11.39-43.89h8.62l-.1,2.75-2.24.4,10.59,40.67,3,.73v3.45h-13.6v-3.45l3.17-.45.37-.9-3-12h-11l-3,12,.52.9,3.18.52v3.45H300.89v-3.45ZM271.28,123.7v-3.45h13.84v3.45l-2.92.34-.55,1.08,8.56,27.7,7.92-27.7-.56-1.08-3-.34v-3.45h11v3.45l-3.27.93-13.93,43.68L274.6,124.56Zm-20,44v-3.45l3.07-.38.86-1.11V125.05l-.71-1-3.22-.34v-3.45h14.51v3.45l-3.07.34-.82,1v38.57h5.57c6.65-.19,6.76-2.11,7.48-5.17l1.78-.19v9.47Zm-32.73-4.11,11.39-43.89h7.54l.5,1.88-2,.93,10.84,41,3,.73v3.45H236.18v-3.45l3.17-.45.37-.9-3-12h-11l-3,12,.52.9,3.17.52v3.45H215.52v-3.45Zm-29.14,2.56v-10H191l2.07,5.18,1.61,2.09a12,12,0,0,0,2.2.72,10.37,10.37,0,0,0,2.23.25,6.26,6.26,0,0,0,4.72-1.83,6.66,6.66,0,0,0,1.77-4.87,9.19,9.19,0,0,0-1.24-4.79,14.35,14.35,0,0,0-4.15-4.13c-.31-.22-.79-.55-1.42-1a23.47,23.47,0,0,1-5.16-4.28,17.72,17.72,0,0,1-2.62-5.1,15.22,15.22,0,0,1-.9-5.15,15,15,0,0,1,3.31-10,10.65,10.65,0,0,1,8.57-3.94,18.9,18.9,0,0,1,4.65.6,25.71,25.71,0,0,1,4.81,1.82v7.28l-1.33-.1-2.69-3-1.56-1.82a4.82,4.82,0,0,0-1.62-.75,8.15,8.15,0,0,0-2.07-.25,5.4,5.4,0,0,0-4.3,1.86,7.14,7.14,0,0,0-1.62,4.88,8.54,8.54,0,0,0,.92,4,12.8,12.8,0,0,0,3.16,3.64,34.49,34.49,0,0,0,3,2,30.53,30.53,0,0,1,4.17,3.05,17.56,17.56,0,0,1,3.76,5.51,15,15,0,0,1,1.18,5.91c0,4.33-1.22,7.84-3.67,10.5a12.45,12.45,0,0,1-9.68,4,21.09,21.09,0,0,1-5-.61A23.9,23.9,0,0,1,189.4,166.18Zm.28-48.87-21.23,17.91a3.75,3.75,0,0,1-3.54-4.41l21.23-17.91C188.64,112.84,190.2,114.62,189.68,117.31Zm-33.91,7.09L156,186H595.38a15.74,15.74,0,0,0,15.89-15.48V103.35l-429.79-.06c.69,1.13,1.35,2.27,2,3.43q1.31,2.32,2.49,4.74l-17.53,14.86-4.64,4-.05,0c-1.4-.92-2.62-1.72-3.69-2.45A30.28,30.28,0,0,1,155.77,124.4Z"/><line class="cls-3" x1="24" y1="2.15" y2="2.15"/><line class="cls-3" x1="660" y1="2.15" x2="684" y2="2.15"/><rect class="cls-4" x="8.84" y="26.5" width="670.5" height="187.5"/></svg>